<mxfile host="65bd71144e">
    <diagram id="Z1zgl5IiiRTWxMktYgDW" name="Page-1">
        <mxGraphModel dx="1311" dy="831" grid="0" gridSize="10" guides="0" tooltips="1" connect="1" arrows="1" fold="1" page="1" pageScale="1" pageWidth="1169" pageHeight="827" background="#000000" math="0" shadow="0">
            <root>
                <mxCell id="0"/>
                <mxCell id="1" parent="0"/>
                <mxCell id="14" style="edgeStyle=none;html=1;exitX=0.5;exitY=1;exitDx=0;exitDy=0;entryX=0.25;entryY=0;entryDx=0;entryDy=0;fontSize=20;rounded=0;fontColor=default;labelBackgroundColor=none;labelBorderColor=none;" parent="1" source="6" target="10" edge="1">
                    <mxGeometry relative="1" as="geometry"/>
                </mxCell>
                <mxCell id="6" value="&lt;font style=&quot;font-size: 20px;&quot;&gt;Vibration sensors&lt;br&gt;&lt;/font&gt;" style="whiteSpace=wrap;html=1;fillColor=none;gradientColor=none;strokeWidth=1;rounded=0;fontColor=default;labelBackgroundColor=none;labelBorderColor=none;" parent="1" vertex="1">
                    <mxGeometry x="541.92" y="263" width="120" height="60" as="geometry"/>
                </mxCell>
                <mxCell id="17" style="edgeStyle=none;html=1;exitX=0.5;exitY=1;exitDx=0;exitDy=0;entryX=0.75;entryY=0;entryDx=0;entryDy=0;fontSize=20;rounded=0;fontColor=default;labelBackgroundColor=none;labelBorderColor=none;" parent="1" source="7" target="10" edge="1">
                    <mxGeometry relative="1" as="geometry"/>
                </mxCell>
                <mxCell id="7" value="&lt;font style=&quot;font-size: 20px;&quot;&gt;Pitch identifier&lt;/font&gt;" style="whiteSpace=wrap;html=1;fillColor=none;gradientColor=none;strokeWidth=1;rounded=0;fontColor=default;labelBackgroundColor=none;labelBorderColor=none;" parent="1" vertex="1">
                    <mxGeometry x="731.92" y="263" width="120" height="60" as="geometry"/>
                </mxCell>
                <mxCell id="9" value="&lt;p style=&quot;line-height: 140%;&quot;&gt;&lt;font style=&quot;font-size: 20px;&quot;&gt;Guitar sensors&lt;/font&gt;&lt;/p&gt;" style="text;html=1;align=center;verticalAlign=middle;resizable=0;points=[];autosize=1;strokeColor=none;fillColor=none;strokeWidth=3;rounded=0;fontColor=default;labelBackgroundColor=none;labelBorderColor=none;" parent="1" vertex="1">
                    <mxGeometry x="620.92" y="213" width="150" height="60" as="geometry"/>
                </mxCell>
                <mxCell id="39" style="edgeStyle=none;html=1;exitX=0;exitY=0.5;exitDx=0;exitDy=0;entryX=1;entryY=0.5;entryDx=0;entryDy=0;fontSize=20;rounded=0;fontColor=default;labelBackgroundColor=none;labelBorderColor=none;" parent="1" source="10" target="33" edge="1">
                    <mxGeometry relative="1" as="geometry"/>
                </mxCell>
                <mxCell id="52" style="edgeStyle=none;html=1;exitX=0.25;exitY=1;exitDx=0;exitDy=0;entryX=0.413;entryY=0.003;entryDx=0;entryDy=0;entryPerimeter=0;fontSize=18;rounded=0;fontColor=default;labelBackgroundColor=none;labelBorderColor=none;" parent="1" source="10" edge="1">
                    <mxGeometry relative="1" as="geometry">
                        <mxPoint x="656.7700000000001" y="633.5999999999999" as="targetPoint"/>
                    </mxGeometry>
                </mxCell>
                <mxCell id="10" value="Data processing by Arduino" style="whiteSpace=wrap;html=1;strokeWidth=1.5;fontSize=20;fillColor=none;gradientColor=none;rounded=0;fontColor=default;labelBackgroundColor=none;labelBorderColor=none;" parent="1" vertex="1">
                    <mxGeometry x="618.42" y="458" width="155" height="80" as="geometry"/>
                </mxCell>
                <mxCell id="11" value="Motor" style="whiteSpace=wrap;html=1;strokeWidth=1;fontSize=20;fillColor=none;gradientColor=none;rounded=0;fontColor=default;labelBackgroundColor=none;labelBorderColor=none;" parent="1" vertex="1">
                    <mxGeometry x="240.92" y="481.75" width="120" height="60" as="geometry"/>
                </mxCell>
                <mxCell id="22" value="&lt;span style=&quot;white-space: pre;&quot;&gt;&#9;&lt;/span&gt;" style="whiteSpace=wrap;html=1;strokeWidth=0.5;fontSize=20;fillColor=none;gradientColor=none;dashed=1;dashPattern=8 8;rounded=0;fontColor=default;labelBackgroundColor=none;labelBorderColor=none;" parent="1" vertex="1">
                    <mxGeometry x="515" y="222" width="360" height="140" as="geometry"/>
                </mxCell>
                <mxCell id="24" style="edgeStyle=none;html=1;fontSize=20;entryX=0;entryY=0.5;entryDx=0;entryDy=0;rounded=0;fontColor=default;labelBackgroundColor=none;labelBorderColor=none;" parent="1" source="23" target="22" edge="1">
                    <mxGeometry relative="1" as="geometry">
                        <mxPoint x="475.91999999999996" y="283" as="targetPoint"/>
                    </mxGeometry>
                </mxCell>
                <mxCell id="80" style="edgeStyle=orthogonalEdgeStyle;rounded=0;html=1;exitX=0;exitY=0.5;exitDx=0;exitDy=0;entryX=0;entryY=0.5;entryDx=0;entryDy=0;endArrow=doubleBlock;endFill=1;fontColor=default;labelBackgroundColor=none;labelBorderColor=none;fillColor=#e51400;strokeColor=#CC0000;strokeWidth=2;" parent="1" source="23" target="62" edge="1">
                    <mxGeometry relative="1" as="geometry">
                        <Array as="points">
                            <mxPoint x="188" y="293"/>
                            <mxPoint x="188" y="663"/>
                        </Array>
                    </mxGeometry>
                </mxCell>
                <mxCell id="23" value="User" style="whiteSpace=wrap;html=1;strokeWidth=1;fontSize=20;fillColor=none;gradientColor=none;rounded=0;fontColor=default;labelBackgroundColor=none;labelBorderColor=none;" parent="1" vertex="1">
                    <mxGeometry x="315.91999999999996" y="263" width="110" height="60" as="geometry"/>
                </mxCell>
                <mxCell id="30" value="Speaker" style="whiteSpace=wrap;html=1;strokeWidth=1;fontSize=20;fillColor=none;gradientColor=none;rounded=0;fontColor=default;labelBackgroundColor=none;labelBorderColor=none;" parent="1" vertex="1">
                    <mxGeometry x="380.91999999999996" y="481.75" width="120" height="60" as="geometry"/>
                </mxCell>
                <mxCell id="41" style="edgeStyle=none;html=1;exitX=0.5;exitY=0;exitDx=0;exitDy=0;entryX=0.5;entryY=1;entryDx=0;entryDy=0;fontSize=20;rounded=0;fontColor=default;labelBackgroundColor=none;labelBorderColor=none;" parent="1" source="33" target="23" edge="1">
                    <mxGeometry relative="1" as="geometry"/>
                </mxCell>
                <mxCell id="33" value="" style="whiteSpace=wrap;html=1;strokeWidth=0.5;fontSize=20;fillColor=none;gradientColor=none;dashed=1;rounded=0;fontColor=default;labelBackgroundColor=none;labelBorderColor=none;" parent="1" vertex="1">
                    <mxGeometry x="225.92" y="444.25" width="290" height="110" as="geometry"/>
                </mxCell>
                <mxCell id="34" value="Actuators" style="text;html=1;align=center;verticalAlign=middle;resizable=0;points=[];autosize=1;strokeColor=none;fillColor=none;fontSize=20;rounded=0;fontColor=default;labelBackgroundColor=none;labelBorderColor=none;" parent="1" vertex="1">
                    <mxGeometry x="315.91999999999996" y="441.75" width="110" height="40" as="geometry"/>
                </mxCell>
                <mxCell id="54" style="edgeStyle=none;html=1;exitX=0.586;exitY=0;exitDx=0;exitDy=0;entryX=0.75;entryY=1;entryDx=0;entryDy=0;fontSize=18;exitPerimeter=0;rounded=0;fontColor=default;labelBackgroundColor=none;labelBorderColor=none;" parent="1" target="10" edge="1">
                    <mxGeometry relative="1" as="geometry">
                        <mxPoint x="734.62" y="633" as="sourcePoint"/>
                    </mxGeometry>
                </mxCell>
                <mxCell id="62" value="Phone app" style="whiteSpace=wrap;html=1;strokeWidth=1;fontSize=22;fillColor=none;gradientColor=none;rounded=0;fontColor=default;labelBackgroundColor=none;labelBorderColor=none;" parent="1" vertex="1">
                    <mxGeometry x="635.92" y="633" width="120" height="60" as="geometry"/>
                </mxCell>
            </root>
        </mxGraphModel>
    </diagram>
</mxfile>